<svg xmlns="http://www.w3.org/2000/svg" xmlns:xlink="http://www.w3.org/1999/xlink" width="1000" zoomAndPan="magnify" viewBox="0 0 750 276.749989" height="369" preserveAspectRatio="xMidYMid meet" version="1.0"><defs><g/></defs><g fill="#000000" fill-opacity="1"><g transform="translate(240.037569, 179.828091)"><g><path d="M 59.640625 0 L 59.640625 -46.40625 C 59.640625 -60.9375 55.457031 -68.203125 47.09375 -68.203125 C 42.757812 -68.203125 39.226562 -65.984375 36.5 -61.546875 C 33.78125 -57.109375 32.421875 -51.375 32.421875 -44.34375 L 32.421875 0 L 10.9375 0 L 10.9375 -64.21875 C 10.9375 -68.65625 10.867188 -72.285156 10.734375 -75.109375 C 10.609375 -77.941406 10.472656 -80.476562 10.328125 -82.71875 L 30.8125 -82.71875 C 30.96875 -81.75 31.171875 -79.160156 31.421875 -74.953125 C 31.679688 -70.753906 31.8125 -67.863281 31.8125 -66.28125 L 32.109375 -66.28125 C 34.765625 -72.601562 38.066406 -77.191406 42.015625 -80.046875 C 45.960938 -82.898438 50.6875 -84.328125 56.1875 -84.328125 C 68.832031 -84.328125 76.503906 -78.3125 79.203125 -66.28125 L 79.671875 -66.28125 C 82.472656 -72.707031 85.832031 -77.320312 89.75 -80.125 C 93.675781 -82.925781 98.675781 -84.328125 104.75 -84.328125 C 112.800781 -84.328125 118.941406 -81.585938 123.171875 -76.109375 C 127.398438 -70.628906 129.515625 -62.769531 129.515625 -52.53125 L 129.515625 0 L 108.1875 0 L 108.1875 -46.40625 C 108.1875 -60.9375 104.003906 -68.203125 95.640625 -68.203125 C 91.460938 -68.203125 88.035156 -66.175781 85.359375 -62.125 C 82.679688 -58.070312 81.21875 -52.476562 80.96875 -45.34375 L 80.96875 0 Z M 59.640625 0 "/></g></g></g><g fill="#000000" fill-opacity="1"><g transform="translate(379.255917, 179.828091)"><g><path d="M 80.65625 -24.15625 C 80.65625 -16.15625 77.378906 -9.875 70.828125 -5.3125 C 64.285156 -0.75 55.226562 1.53125 43.65625 1.53125 C 32.289062 1.53125 23.585938 -0.265625 17.546875 -3.859375 C 11.503906 -7.453125 7.488281 -13.046875 5.5 -20.640625 L 24.390625 -23.46875 C 25.460938 -19.539062 27.3125 -16.757812 29.9375 -15.125 C 32.5625 -13.5 37.132812 -12.6875 43.65625 -12.6875 C 49.664062 -12.6875 54.046875 -13.453125 56.796875 -14.984375 C 59.554688 -16.515625 60.9375 -18.910156 60.9375 -22.171875 C 60.9375 -24.816406 59.828125 -26.914062 57.609375 -28.46875 C 55.390625 -30.03125 51.628906 -31.347656 46.328125 -32.421875 C 34.203125 -34.816406 26.019531 -37.046875 21.78125 -39.109375 C 17.550781 -41.171875 14.328125 -43.84375 12.109375 -47.125 C 9.898438 -50.414062 8.796875 -54.457031 8.796875 -59.25 C 8.796875 -67.15625 11.835938 -73.3125 17.921875 -77.71875 C 24.015625 -82.125 32.644531 -84.328125 43.8125 -84.328125 C 53.644531 -84.328125 61.554688 -82.414062 67.546875 -78.59375 C 73.535156 -74.769531 77.269531 -69.238281 78.75 -62 L 59.703125 -60.015625 C 59.097656 -63.378906 57.597656 -65.890625 55.203125 -67.546875 C 52.804688 -69.203125 49.007812 -70.03125 43.8125 -70.03125 C 38.707031 -70.03125 34.878906 -69.378906 32.328125 -68.078125 C 29.785156 -66.785156 28.515625 -64.609375 28.515625 -61.546875 C 28.515625 -59.148438 29.492188 -57.25 31.453125 -55.84375 C 33.421875 -54.445312 36.722656 -53.289062 41.359375 -52.375 C 47.835938 -51.050781 53.585938 -49.6875 58.609375 -48.28125 C 63.628906 -46.875 67.65625 -45.203125 70.6875 -43.265625 C 73.71875 -41.335938 76.132812 -38.851562 77.9375 -35.8125 C 79.75 -32.78125 80.65625 -28.894531 80.65625 -24.15625 Z M 80.65625 -24.15625 "/></g></g></g><g fill="#000000" fill-opacity="1"><g transform="translate(466.334286, 179.828091)"><g><path d="M 10.9375 0 L 10.9375 -113.453125 L 32.421875 -113.453125 L 32.421875 0 Z M 10.9375 0 "/></g></g></g><g fill="#000000" fill-opacity="1"><g transform="translate(305.298892, 218.493804)"><g><path d="M 10.203125 0 L 10.203125 -6.671875 C 10.203125 -6.816406 10.203125 -6.960938 10.203125 -7.109375 C 10.203125 -7.265625 10.226562 -7.914062 10.28125 -9.0625 C 9.90625 -7.664062 9.628906 -6.691406 9.453125 -6.140625 L 7.484375 0 L 5.84375 0 L 3.859375 -6.140625 L 3.015625 -9.0625 C 3.078125 -7.851562 3.109375 -7.054688 3.109375 -6.671875 L 3.109375 0 L 1.0625 0 L 1.0625 -11 L 4.15625 -11 L 6.125 -4.84375 L 6.296875 -4.25 L 6.671875 -2.78125 L 7.15625 -4.546875 L 9.171875 -11 L 12.25 -11 L 12.25 0 Z M 10.203125 0 "/></g></g></g><g fill="#000000" fill-opacity="1"><g transform="translate(318.611736, 218.493804)"><g><path d="M 9.140625 -4.234375 C 9.140625 -2.859375 8.757812 -1.78125 8 -1 C 7.238281 -0.226562 6.1875 0.15625 4.84375 0.15625 C 3.53125 0.15625 2.5 -0.234375 1.75 -1.015625 C 1 -1.796875 0.625 -2.867188 0.625 -4.234375 C 0.625 -5.585938 1 -6.648438 1.75 -7.421875 C 2.5 -8.203125 3.546875 -8.59375 4.890625 -8.59375 C 6.273438 -8.59375 7.328125 -8.21875 8.046875 -7.46875 C 8.773438 -6.71875 9.140625 -5.640625 9.140625 -4.234375 Z M 6.84375 -4.234375 C 6.84375 -5.234375 6.675781 -5.957031 6.34375 -6.40625 C 6.019531 -6.863281 5.546875 -7.09375 4.921875 -7.09375 C 3.585938 -7.09375 2.921875 -6.140625 2.921875 -4.234375 C 2.921875 -3.285156 3.082031 -2.566406 3.40625 -2.078125 C 3.738281 -1.585938 4.210938 -1.34375 4.828125 -1.34375 C 6.171875 -1.34375 6.84375 -2.304688 6.84375 -4.234375 Z M 6.84375 -4.234375 "/></g></g></g><g fill="#000000" fill-opacity="1"><g transform="translate(328.373973, 218.493804)"><g><path d="M 6.59375 0 C 6.570312 -0.0703125 6.546875 -0.265625 6.515625 -0.578125 C 6.484375 -0.898438 6.46875 -1.164062 6.46875 -1.375 L 6.4375 -1.375 C 5.96875 -0.351562 5.066406 0.15625 3.734375 0.15625 C 2.753906 0.15625 1.992188 -0.222656 1.453125 -0.984375 C 0.921875 -1.753906 0.65625 -2.832031 0.65625 -4.21875 C 0.65625 -5.613281 0.9375 -6.691406 1.5 -7.453125 C 2.0625 -8.210938 2.863281 -8.59375 3.90625 -8.59375 C 4.5 -8.59375 5.015625 -8.46875 5.453125 -8.21875 C 5.890625 -7.976562 6.222656 -7.609375 6.453125 -7.109375 L 6.46875 -7.109375 L 6.453125 -8.5 L 6.453125 -11.578125 L 8.640625 -11.578125 L 8.640625 -1.84375 C 8.640625 -1.320312 8.660156 -0.707031 8.703125 0 Z M 6.484375 -4.265625 C 6.484375 -5.179688 6.332031 -5.882812 6.03125 -6.375 C 5.726562 -6.863281 5.28125 -7.109375 4.6875 -7.109375 C 4.09375 -7.109375 3.648438 -6.867188 3.359375 -6.390625 C 3.078125 -5.921875 2.9375 -5.195312 2.9375 -4.21875 C 2.9375 -2.300781 3.515625 -1.34375 4.671875 -1.34375 C 5.242188 -1.34375 5.6875 -1.59375 6 -2.09375 C 6.320312 -2.601562 6.484375 -3.328125 6.484375 -4.265625 Z M 6.484375 -4.265625 "/></g></g></g><g fill="#000000" fill-opacity="1"><g transform="translate(338.136211, 218.493804)"><g><path d="M 4.578125 0.15625 C 3.304688 0.15625 2.328125 -0.21875 1.640625 -0.96875 C 0.960938 -1.71875 0.625 -2.816406 0.625 -4.265625 C 0.625 -5.660156 0.96875 -6.726562 1.65625 -7.46875 C 2.351562 -8.21875 3.335938 -8.59375 4.609375 -8.59375 C 5.816406 -8.59375 6.738281 -8.191406 7.375 -7.390625 C 8.019531 -6.585938 8.34375 -5.410156 8.34375 -3.859375 L 8.34375 -3.796875 L 2.921875 -3.796875 C 2.921875 -2.972656 3.070312 -2.351562 3.375 -1.9375 C 3.6875 -1.519531 4.125 -1.3125 4.6875 -1.3125 C 5.457031 -1.3125 5.945312 -1.644531 6.15625 -2.3125 L 8.21875 -2.140625 C 7.625 -0.609375 6.410156 0.15625 4.578125 0.15625 Z M 4.578125 -7.21875 C 4.054688 -7.21875 3.65625 -7.035156 3.375 -6.671875 C 3.101562 -6.316406 2.957031 -5.816406 2.9375 -5.171875 L 6.21875 -5.171875 C 6.175781 -5.859375 6.007812 -6.367188 5.71875 -6.703125 C 5.4375 -7.046875 5.054688 -7.21875 4.578125 -7.21875 Z M 4.578125 -7.21875 "/></g></g></g><g fill="#000000" fill-opacity="1"><g transform="translate(347.024452, 218.493804)"><g><path d="M 1.109375 0 L 1.109375 -6.46875 C 1.109375 -6.925781 1.101562 -7.304688 1.09375 -7.609375 C 1.082031 -7.921875 1.066406 -8.195312 1.046875 -8.4375 L 3.140625 -8.4375 C 3.160156 -8.34375 3.179688 -8.054688 3.203125 -7.578125 C 3.234375 -7.109375 3.25 -6.796875 3.25 -6.640625 L 3.28125 -6.640625 C 3.488281 -7.234375 3.675781 -7.648438 3.84375 -7.890625 C 4.007812 -8.128906 4.207031 -8.304688 4.4375 -8.421875 C 4.664062 -8.546875 4.953125 -8.609375 5.296875 -8.609375 C 5.578125 -8.609375 5.804688 -8.566406 5.984375 -8.484375 L 5.984375 -6.65625 C 5.628906 -6.738281 5.316406 -6.78125 5.046875 -6.78125 C 4.492188 -6.78125 4.066406 -6.554688 3.765625 -6.109375 C 3.460938 -5.671875 3.3125 -5.015625 3.3125 -4.140625 L 3.3125 0 Z M 1.109375 0 "/></g></g></g><g fill="#000000" fill-opacity="1"><g transform="translate(353.243881, 218.493804)"><g><path d="M 6.59375 0 L 6.59375 -4.734375 C 6.59375 -6.222656 6.085938 -6.96875 5.078125 -6.96875 C 4.546875 -6.96875 4.117188 -6.738281 3.796875 -6.28125 C 3.472656 -5.820312 3.3125 -5.238281 3.3125 -4.53125 L 3.3125 0 L 1.109375 0 L 1.109375 -6.5625 C 1.109375 -7.007812 1.101562 -7.375 1.09375 -7.65625 C 1.082031 -7.945312 1.066406 -8.207031 1.046875 -8.4375 L 3.140625 -8.4375 C 3.160156 -8.34375 3.179688 -8.082031 3.203125 -7.65625 C 3.234375 -7.226562 3.25 -6.929688 3.25 -6.765625 L 3.28125 -6.765625 C 3.570312 -7.410156 3.941406 -7.878906 4.390625 -8.171875 C 4.835938 -8.460938 5.375 -8.609375 6 -8.609375 C 6.894531 -8.609375 7.578125 -8.332031 8.046875 -7.78125 C 8.523438 -7.226562 8.765625 -6.421875 8.765625 -5.359375 L 8.765625 0 Z M 6.59375 0 "/></g></g></g><g fill="#000000" fill-opacity="1"><g transform="translate(363.006119, 218.493804)"><g/></g></g><g fill="#000000" fill-opacity="1"><g transform="translate(367.44634, 218.493804)"><g><path d="M 8.234375 -2.46875 C 8.234375 -1.644531 7.898438 -1 7.234375 -0.53125 C 6.566406 -0.0703125 5.640625 0.15625 4.453125 0.15625 C 3.296875 0.15625 2.40625 -0.0234375 1.78125 -0.390625 C 1.164062 -0.753906 0.757812 -1.328125 0.5625 -2.109375 L 2.484375 -2.390625 C 2.597656 -1.992188 2.785156 -1.710938 3.046875 -1.546875 C 3.316406 -1.378906 3.785156 -1.296875 4.453125 -1.296875 C 5.066406 -1.296875 5.515625 -1.375 5.796875 -1.53125 C 6.078125 -1.6875 6.21875 -1.929688 6.21875 -2.265625 C 6.21875 -2.535156 6.101562 -2.75 5.875 -2.90625 C 5.65625 -3.0625 5.273438 -3.195312 4.734375 -3.3125 C 3.492188 -3.550781 2.65625 -3.773438 2.21875 -3.984375 C 1.789062 -4.203125 1.460938 -4.476562 1.234375 -4.8125 C 1.003906 -5.144531 0.890625 -5.554688 0.890625 -6.046875 C 0.890625 -6.859375 1.203125 -7.488281 1.828125 -7.9375 C 2.453125 -8.382812 3.332031 -8.609375 4.46875 -8.609375 C 5.476562 -8.609375 6.285156 -8.410156 6.890625 -8.015625 C 7.503906 -7.628906 7.882812 -7.066406 8.03125 -6.328125 L 6.09375 -6.125 C 6.03125 -6.46875 5.875 -6.722656 5.625 -6.890625 C 5.382812 -7.066406 5 -7.15625 4.46875 -7.15625 C 3.945312 -7.15625 3.554688 -7.085938 3.296875 -6.953125 C 3.035156 -6.816406 2.90625 -6.59375 2.90625 -6.28125 C 2.90625 -6.039062 3.003906 -5.847656 3.203125 -5.703125 C 3.410156 -5.554688 3.75 -5.4375 4.21875 -5.34375 C 4.882812 -5.207031 5.472656 -5.066406 5.984375 -4.921875 C 6.492188 -4.785156 6.90625 -4.617188 7.21875 -4.421875 C 7.53125 -4.222656 7.773438 -3.96875 7.953125 -3.65625 C 8.140625 -3.34375 8.234375 -2.945312 8.234375 -2.46875 Z M 8.234375 -2.46875 "/></g></g></g><g fill="#000000" fill-opacity="1"><g transform="translate(376.334581, 218.493804)"><g><path d="M 3.28125 0.140625 C 2.632812 0.140625 2.132812 -0.03125 1.78125 -0.375 C 1.4375 -0.726562 1.265625 -1.265625 1.265625 -1.984375 L 1.265625 -6.96875 L 0.1875 -6.96875 L 0.1875 -8.4375 L 1.375 -8.4375 L 2.0625 -10.421875 L 3.4375 -10.421875 L 3.4375 -8.4375 L 5.03125 -8.4375 L 5.03125 -6.96875 L 3.4375 -6.96875 L 3.4375 -2.578125 C 3.4375 -2.160156 3.515625 -1.851562 3.671875 -1.65625 C 3.828125 -1.46875 4.066406 -1.375 4.390625 -1.375 C 4.566406 -1.375 4.8125 -1.410156 5.125 -1.484375 L 5.125 -0.125 C 4.582031 0.0507812 3.96875 0.140625 3.28125 0.140625 Z M 3.28125 0.140625 "/></g></g></g><g fill="#000000" fill-opacity="1"><g transform="translate(381.656598, 218.493804)"><g><path d="M 9.140625 -4.234375 C 9.140625 -2.859375 8.757812 -1.78125 8 -1 C 7.238281 -0.226562 6.1875 0.15625 4.84375 0.15625 C 3.53125 0.15625 2.5 -0.234375 1.75 -1.015625 C 1 -1.796875 0.625 -2.867188 0.625 -4.234375 C 0.625 -5.585938 1 -6.648438 1.75 -7.421875 C 2.5 -8.203125 3.546875 -8.59375 4.890625 -8.59375 C 6.273438 -8.59375 7.328125 -8.21875 8.046875 -7.46875 C 8.773438 -6.71875 9.140625 -5.640625 9.140625 -4.234375 Z M 6.84375 -4.234375 C 6.84375 -5.234375 6.675781 -5.957031 6.34375 -6.40625 C 6.019531 -6.863281 5.546875 -7.09375 4.921875 -7.09375 C 3.585938 -7.09375 2.921875 -6.140625 2.921875 -4.234375 C 2.921875 -3.285156 3.082031 -2.566406 3.40625 -2.078125 C 3.738281 -1.585938 4.210938 -1.34375 4.828125 -1.34375 C 6.171875 -1.34375 6.84375 -2.304688 6.84375 -4.234375 Z M 6.84375 -4.234375 "/></g></g></g><g fill="#000000" fill-opacity="1"><g transform="translate(391.418835, 218.493804)"><g><path d="M 1.109375 0 L 1.109375 -6.46875 C 1.109375 -6.925781 1.101562 -7.304688 1.09375 -7.609375 C 1.082031 -7.921875 1.066406 -8.195312 1.046875 -8.4375 L 3.140625 -8.4375 C 3.160156 -8.34375 3.179688 -8.054688 3.203125 -7.578125 C 3.234375 -7.109375 3.25 -6.796875 3.25 -6.640625 L 3.28125 -6.640625 C 3.488281 -7.234375 3.675781 -7.648438 3.84375 -7.890625 C 4.007812 -8.128906 4.207031 -8.304688 4.4375 -8.421875 C 4.664062 -8.546875 4.953125 -8.609375 5.296875 -8.609375 C 5.578125 -8.609375 5.804688 -8.566406 5.984375 -8.484375 L 5.984375 -6.65625 C 5.628906 -6.738281 5.316406 -6.78125 5.046875 -6.78125 C 4.492188 -6.78125 4.066406 -6.554688 3.765625 -6.109375 C 3.460938 -5.671875 3.3125 -5.015625 3.3125 -4.140625 L 3.3125 0 Z M 1.109375 0 "/></g></g></g><g fill="#000000" fill-opacity="1"><g transform="translate(397.638265, 218.493804)"><g><path d="M 4.578125 0.15625 C 3.304688 0.15625 2.328125 -0.21875 1.640625 -0.96875 C 0.960938 -1.71875 0.625 -2.816406 0.625 -4.265625 C 0.625 -5.660156 0.96875 -6.726562 1.65625 -7.46875 C 2.351562 -8.21875 3.335938 -8.59375 4.609375 -8.59375 C 5.816406 -8.59375 6.738281 -8.191406 7.375 -7.390625 C 8.019531 -6.585938 8.34375 -5.410156 8.34375 -3.859375 L 8.34375 -3.796875 L 2.921875 -3.796875 C 2.921875 -2.972656 3.070312 -2.351562 3.375 -1.9375 C 3.6875 -1.519531 4.125 -1.3125 4.6875 -1.3125 C 5.457031 -1.3125 5.945312 -1.644531 6.15625 -2.3125 L 8.21875 -2.140625 C 7.625 -0.609375 6.410156 0.15625 4.578125 0.15625 Z M 4.578125 -7.21875 C 4.054688 -7.21875 3.65625 -7.035156 3.375 -6.671875 C 3.101562 -6.316406 2.957031 -5.816406 2.9375 -5.171875 L 6.21875 -5.171875 C 6.175781 -5.859375 6.007812 -6.367188 5.71875 -6.703125 C 5.4375 -7.046875 5.054688 -7.21875 4.578125 -7.21875 Z M 4.578125 -7.21875 "/></g></g></g><g fill="#000000" fill-opacity="1"><g transform="translate(406.526505, 218.493804)"><g/></g></g><g fill="#000000" fill-opacity="1"><g transform="translate(410.966727, 218.493804)"><g><path d="M 1.109375 0 L 1.109375 -11.578125 L 3.3125 -11.578125 L 3.3125 0 Z M 1.109375 0 "/></g></g></g><g fill="#000000" fill-opacity="1"><g transform="translate(415.406948, 218.493804)"><g><path d="M 9.140625 -4.234375 C 9.140625 -2.859375 8.757812 -1.78125 8 -1 C 7.238281 -0.226562 6.1875 0.15625 4.84375 0.15625 C 3.53125 0.15625 2.5 -0.234375 1.75 -1.015625 C 1 -1.796875 0.625 -2.867188 0.625 -4.234375 C 0.625 -5.585938 1 -6.648438 1.75 -7.421875 C 2.5 -8.203125 3.546875 -8.59375 4.890625 -8.59375 C 6.273438 -8.59375 7.328125 -8.21875 8.046875 -7.46875 C 8.773438 -6.71875 9.140625 -5.640625 9.140625 -4.234375 Z M 6.84375 -4.234375 C 6.84375 -5.234375 6.675781 -5.957031 6.34375 -6.40625 C 6.019531 -6.863281 5.546875 -7.09375 4.921875 -7.09375 C 3.585938 -7.09375 2.921875 -6.140625 2.921875 -4.234375 C 2.921875 -3.285156 3.082031 -2.566406 3.40625 -2.078125 C 3.738281 -1.585938 4.210938 -1.34375 4.828125 -1.34375 C 6.171875 -1.34375 6.84375 -2.304688 6.84375 -4.234375 Z M 6.84375 -4.234375 "/></g></g></g><g fill="#000000" fill-opacity="1"><g transform="translate(425.169186, 218.493804)"><g><path d="M 4.65625 3.390625 C 3.625 3.390625 2.789062 3.191406 2.15625 2.796875 C 1.53125 2.398438 1.144531 1.835938 1 1.109375 L 3.203125 0.859375 C 3.273438 1.191406 3.441406 1.453125 3.703125 1.640625 C 3.960938 1.835938 4.300781 1.9375 4.71875 1.9375 C 5.320312 1.9375 5.765625 1.75 6.046875 1.375 C 6.328125 1 6.46875 0.445312 6.46875 -0.28125 L 6.46875 -0.734375 L 6.484375 -1.5625 L 6.46875 -1.5625 C 5.988281 -0.53125 5.082031 -0.015625 3.75 -0.015625 C 2.769531 -0.015625 2.007812 -0.382812 1.46875 -1.125 C 0.925781 -1.863281 0.65625 -2.921875 0.65625 -4.296875 C 0.65625 -5.671875 0.929688 -6.734375 1.484375 -7.484375 C 2.046875 -8.234375 2.859375 -8.609375 3.921875 -8.609375 C 5.148438 -8.609375 6 -8.101562 6.46875 -7.09375 L 6.515625 -7.09375 C 6.515625 -7.269531 6.523438 -7.515625 6.546875 -7.828125 C 6.566406 -8.140625 6.59375 -8.34375 6.625 -8.4375 L 8.6875 -8.4375 C 8.65625 -7.882812 8.640625 -7.238281 8.640625 -6.5 L 8.640625 -0.25 C 8.640625 0.945312 8.300781 1.851562 7.625 2.46875 C 6.945312 3.082031 5.957031 3.390625 4.65625 3.390625 Z M 6.484375 -4.34375 C 6.484375 -5.207031 6.328125 -5.882812 6.015625 -6.375 C 5.710938 -6.863281 5.273438 -7.109375 4.703125 -7.109375 C 3.523438 -7.109375 2.9375 -6.171875 2.9375 -4.296875 C 2.9375 -2.453125 3.519531 -1.53125 4.6875 -1.53125 C 5.269531 -1.53125 5.710938 -1.773438 6.015625 -2.265625 C 6.328125 -2.753906 6.484375 -3.445312 6.484375 -4.34375 Z M 6.484375 -4.34375 "/></g></g></g><g fill="#000000" fill-opacity="1"><g transform="translate(434.931424, 218.493804)"><g><path d="M 9.140625 -4.234375 C 9.140625 -2.859375 8.757812 -1.78125 8 -1 C 7.238281 -0.226562 6.1875 0.15625 4.84375 0.15625 C 3.53125 0.15625 2.5 -0.234375 1.75 -1.015625 C 1 -1.796875 0.625 -2.867188 0.625 -4.234375 C 0.625 -5.585938 1 -6.648438 1.75 -7.421875 C 2.5 -8.203125 3.546875 -8.59375 4.890625 -8.59375 C 6.273438 -8.59375 7.328125 -8.21875 8.046875 -7.46875 C 8.773438 -6.71875 9.140625 -5.640625 9.140625 -4.234375 Z M 6.84375 -4.234375 C 6.84375 -5.234375 6.675781 -5.957031 6.34375 -6.40625 C 6.019531 -6.863281 5.546875 -7.09375 4.921875 -7.09375 C 3.585938 -7.09375 2.921875 -6.140625 2.921875 -4.234375 C 2.921875 -3.285156 3.082031 -2.566406 3.40625 -2.078125 C 3.738281 -1.585938 4.210938 -1.34375 4.828125 -1.34375 C 6.171875 -1.34375 6.84375 -2.304688 6.84375 -4.234375 Z M 6.84375 -4.234375 "/></g></g></g></svg>